<svg width="26.000000" height="26.000000" viewBox="0 0 26 26" fill="none" xmlns="http://www.w3.org/2000/svg" xmlns:xlink="http://www.w3.org/1999/xlink">
	<desc>
			Created with Pixso.
	</desc>
	<defs/>
	<path id="Vector" d="M1.91333 17.5922C2.5166 19.0481 3.40039 20.371 4.51465 21.4853C5.62891 22.5996 6.9519 23.4835 8.40771 24.0865C9.86377 24.6896 11.4241 25 13 25C14.5759 25 16.1362 24.6896 17.5923 24.0865C19.0481 23.4835 20.3711 22.5996 21.4854 21.4853C22.5996 20.371 23.4834 19.0481 24.0867 17.5922C24.6897 16.1363 25 14.5759 25 13C25 11.4241 24.6897 9.86371 24.0867 8.40781C23.4834 6.9519 22.5996 5.62903 21.4854 4.51471C20.3711 3.40042 19.0481 2.51651 17.5923 1.91345C16.1362 1.31039 14.5759 1 13 1C11.4241 1 9.86377 1.31039 8.40771 1.91345C6.9519 2.51651 5.62891 3.40042 4.51465 4.51471C3.40039 5.62903 2.5166 6.9519 1.91333 8.40781C1.3103 9.86371 1 11.4241 1 13C1 14.5759 1.3103 16.1363 1.91333 17.5922ZM11.1145 14.8856C11.6145 15.3857 12.2927 15.6667 13 15.6667C13.7073 15.6667 14.3855 15.3857 14.8855 14.8856C15.3857 14.3855 15.6667 13.7072 15.6667 13C15.6667 12.2928 15.3857 11.6145 14.8855 11.1144C14.3855 10.6143 13.7073 10.3333 13 10.3333C12.2927 10.3333 11.6145 10.6143 11.1145 11.1144C10.6143 11.6145 10.3333 12.2928 10.3333 13C10.3333 13.7072 10.6143 14.3855 11.1145 14.8856ZM13 15.6667L13 25M10.3333 13L1.33325 10.3333M15.6667 13L24.6667 10.3333" stroke="#030712" stroke-opacity="0.700000" stroke-width="2.000000" stroke-linejoin="round" stroke-linecap="round"/>
</svg>
